<mxfile host="app.diagrams.net" modified="2024-03-09T17:36:56.164Z" agent="Mozilla/5.0 (Windows NT 10.0; Win64; x64) AppleWebKit/537.36 (KHTML, like Gecko) Chrome/122.0.0.0 Safari/537.36" version="24.0.1" etag="M8nvnXDILOHMcSV_B5OO" type="github">
  <diagram name="Strona-1" id="g9FGLEAcb6Va9wx8vdZM">
    <mxGraphModel>
      <root>
        <mxCell id="0" />
        <mxCell id="1" parent="0" />
      </root>
    </mxGraphModel>
  </diagram>
</mxfile>
